<svg xmlns="http://www.w3.org/2000/svg" width="1200" height="700" viewBox="0 0 1200 700"><rect width="1200" height="700" fill="#eef1f7"/><rect x="35" y="35" width="1130" height="630" rx="22" fill="#fff" stroke="#dce2eb"/><rect x="35" y="35" width="180" height="630" rx="22" fill="#fbfcfe"/><path d="M215 35v630M960 35v630" stroke="#e1e6ee"/><text x="58" y="75" font-family="Arial" font-size="16" font-weight="700" fill="#18212f">✦ Universal Task AI</text><rect x="55" y="95" width="140" height="32" rx="7" fill="#fff" stroke="#e1e6ee"/><text x="68" y="116" font-family="Arial" font-size="11" fill="#7b8494">⌕ Search</text><rect x="50" y="145" width="150" height="34" rx="8" fill="#eef2ff"/><text x="68" y="167" font-family="Arial" font-size="12" font-weight="700" fill="#4352d8">▣ AI Chat</text><text x="68" y="205" font-family="Arial" font-size="11" fill="#5e6878">▱ Projects</text><text x="68" y="235" font-family="Arial" font-size="11" fill="#5e6878">▤ Templates</text><text x="68" y="265" font-family="Arial" font-size="11" fill="#5e6878">▧ Documents</text><text x="68" y="295" font-family="Arial" font-size="11" fill="#5e6878">◈ Community</text><text x="68" y="325" font-family="Arial" font-size="11" fill="#5e6878">◷ History</text><text x="68" y="590" font-family="Arial" font-size="11" fill="#5e6878">⚙ Settings</text><text x="68" y="620" font-family="Arial" font-size="11" fill="#5e6878">? Help</text><text x="590" y="100" text-anchor="middle" font-family="Arial" font-size="30" font-weight="700" fill="#18212f">Welcome to Universal Task AI</text><text x="590" y="125" text-anchor="middle" font-family="Arial" font-size="12" fill="#7b8494">Give the AI a task and let the system plan, execute, review, and return the result.</text><rect x="350" y="160" width="220" height="55" rx="10" fill="#fff" stroke="#e1e6ee"/><rect x="590" y="160" width="220" height="55" rx="10" fill="#fff" stroke="#e1e6ee"/><rect x="350" y="225" width="220" height="55" rx="10" fill="#fff" stroke="#e1e6ee"/><rect x="590" y="225" width="220" height="55" rx="10" fill="#fff" stroke="#e1e6ee"/><text x="370" y="192" font-family="Arial" font-size="12" fill="#18212f">▣ Write document</text><text x="610" y="192" font-family="Arial" font-size="12" fill="#18212f">✧ Image generation</text><text x="370" y="257" font-family="Arial" font-size="12" fill="#18212f">◈ Data analysis</text><text x="610" y="257" font-family="Arial" font-size="12" fill="#18212f">⌘ Write code</text><rect x="285" y="315" width="610" height="120" rx="12" fill="#fff" stroke="#aab4c6"/><text x="305" y="345" font-family="Arial" font-size="12" fill="#7b8494">Describe the task…</text><text x="305" y="405" font-family="Arial" font-size="10" fill="#657082">⌕ Attach    ◉ Voice Message    ✦ Browse Prompts</text><rect x="865" y="392" width="30" height="30" rx="7" fill="#5666e8"/><text x="873" y="413" font-family="Arial" font-size="14" fill="#fff">➤</text><text x="985" y="78" font-family="Arial" font-size="13" font-weight="700" fill="#18212f">Projects 7</text><rect x="980" y="95" width="155" height="34" rx="8" fill="#fff" stroke="#e1e6ee"/><text x="992" y="116" font-family="Arial" font-size="10" fill="#18212f">＋ New Project</text><text x="992" y="155" font-family="Arial" font-size="10" font-weight="700" fill="#18212f">Universal Task AI</text><text x="992" y="171" font-family="Arial" font-size="8" fill="#7b8494">Core agent workspace…</text><text x="992" y="210" font-family="Arial" font-size="10" font-weight="700" fill="#18212f">Research workflows</text><text x="992" y="226" font-family="Arial" font-size="8" fill="#7b8494">Search, evidence and review…</text><circle cx="1115" cy="620" r="20" fill="#5364e9"/><text x="1109" y="626" font-family="Arial" font-size="14" fill="#fff">?</text></svg>